<?xml version="1.0" standalone="no"?>
<!DOCTYPE svg PUBLIC "-//W3C//DTD SVG 20010904//EN"
 "http://www.w3.org/TR/2001/REC-SVG-20010904/DTD/svg10.dtd">
<svg version="1.0" xmlns="http://www.w3.org/2000/svg"
 width="192.000000pt" height="192.000000pt" viewBox="0 0 192.000000 192.000000"
 preserveAspectRatio="xMidYMid meet">

<g transform="translate(0.000000,192.000000) scale(0.100000,-0.100000)"
fill="#000000" stroke="none">
<path d="M260 1321 c0 -80 2 -90 20 -96 10 -3 31 -20 45 -36 36 -44 34 -98 -6
-144 -17 -19 -40 -35 -50 -35 -17 0 -19 -8 -19 -60 0 -58 1 -60 34 -74 18 -8
41 -24 50 -37 35 -50 5 -151 -49 -165 -24 -6 -25 -10 -25 -75 l0 -69 700 0
700 0 0 49 c0 44 -3 50 -30 61 -89 37 -83 177 8 205 31 9 32 11 32 67 0 56 -1
58 -34 72 -94 39 -93 170 2 207 21 8 22 14 22 98 0 49 -3 96 -6 105 -6 14 -77
16 -700 16 l-694 0 0 -89z m940 40 c0 -11 5 -23 10 -26 6 -4 10 5 10 19 l0 26
205 0 205 0 0 -82 c0 -82 -1 -83 -30 -100 -33 -19 -60 -70 -60 -113 0 -39 34
-98 69 -118 26 -15 31 -24 31 -55 0 -31 -5 -40 -30 -54 -36 -21 -70 -74 -70
-111 0 -43 25 -93 59 -118 22 -16 31 -31 31 -51 l0 -28 -202 2 c-202 3 -203 3
-206 26 -5 30 -22 28 -22 -3 l0 -25 -457 2 -458 3 -3 45 c-2 41 0 47 27 62 38
21 63 70 63 121 -1 47 -22 82 -68 109 -29 17 -34 25 -34 57 0 33 4 39 35 54
87 41 90 188 5 232 -29 15 -30 19 -30 80 l0 65 460 0 c449 0 460 0 460 -19z"/>
<path d="M1200 1290 c0 -16 5 -30 10 -30 6 0 10 14 10 30 0 17 -4 30 -10 30
-5 0 -10 -13 -10 -30z"/>
<path d="M1200 1215 c0 -14 5 -25 10 -25 6 0 10 11 10 25 0 14 -4 25 -10 25
-5 0 -10 -11 -10 -25z"/>
<path d="M1200 1145 c0 -14 5 -25 10 -25 6 0 10 11 10 25 0 14 -4 25 -10 25
-5 0 -10 -11 -10 -25z"/>
<path d="M1200 1075 c0 -14 5 -25 10 -25 6 0 10 11 10 25 0 14 -4 25 -10 25
-5 0 -10 -11 -10 -25z"/>
<path d="M1200 1005 c0 -14 5 -25 10 -25 6 0 10 11 10 25 0 14 -4 25 -10 25
-5 0 -10 -11 -10 -25z"/>
<path d="M1200 930 c0 -16 5 -30 10 -30 6 0 10 14 10 30 0 17 -4 30 -10 30 -5
0 -10 -13 -10 -30z"/>
<path d="M1200 855 c0 -14 5 -25 10 -25 6 0 10 11 10 25 0 14 -4 25 -10 25 -5
0 -10 -11 -10 -25z"/>
<path d="M1200 785 c0 -14 5 -25 10 -25 6 0 10 11 10 25 0 14 -4 25 -10 25 -5
0 -10 -11 -10 -25z"/>
<path d="M1200 715 c0 -14 5 -25 10 -25 6 0 10 11 10 25 0 14 -4 25 -10 25 -5
0 -10 -11 -10 -25z"/>
<path d="M1200 640 c0 -16 5 -30 10 -30 6 0 10 14 10 30 0 17 -4 30 -10 30 -5
0 -10 -13 -10 -30z"/>
</g>
</svg>
